<svg xmlns="http://www.w3.org/2000/svg" viewBox="0 0 500 600" width="500" height="600">
  <defs>
    <linearGradient id="goldT" x1="0%" y1="0%" x2="0%" y2="100%">
      <stop offset="0%" stop-color="#F7CE4A"/>
      <stop offset="100%" stop-color="#B8860B"/>
    </linearGradient>
  </defs>

  <!-- Fundo preto -->
  <rect width="500" height="600" fill="#0A0908"/>

  <!-- Borda dourada fina -->
  <rect x="8" y="8" width="484" height="584" rx="4"
        fill="none" stroke="#C9A227" stroke-width="1" opacity="0.5"/>

  <!-- Silhueta — centrada e maior -->
  <path transform="translate(108,15) scale(0.90)" fill="#C9A227"
    d="m142.91 12.851c7.17 1.605 13.87-6.4967 21.87-6.7026 10.84-0.2791 24.08 6.0116 44.16-3.4456
       4.45-2.0987 12.66-4.4661 17.73 0.6527 3.74 3.7741 7.64 5.8076 11.5 4.1369
       9.55-4.1377 18.95 8.7126 24.71 10.422 2.99 0.888 6.1 4.24 9.23 6.417
       4.38 3.046 8.8 9.686 13 13.66 4.68 4.422 8.28 7.043 11.32 9.043
       5.51 6.219-0.67 7.785-4.75 15.373-4.52 4.445-8.97 9.919-14 20.076
       l6.57 43.507 9.76 32.72-6.97 11.33 34.85 49.09
       c0.95 6.9-0.22 12.39-5.58 15.1l-22.3 6.28
       c-2.22 16.91 2.07 21.58 5.58 27.7l-8.37 6.28 8.37 11.33-9.76 6.29 6.97 23.92
       c1.37 8.58-3.64 13.92-6.69 18.29-7.3 8.98-10.36 8.62-21.22 9.29
       -22.36 1.21-36.38-2.78-60.33-11.37
       -7.72 11.56-17.98 18.04-17.81 45.4
       -19.15 20.05-15.4 30.38-17.87 55.83
       -10.51 1.55-9.48 10.35-78.885-59.92
       -34.593-35.01-74.457-56.55-93.088-38.34
       12.128-34.93 32.216-48.33 33.498-85.97
       l-8.926-14.53s-8.362-13.12-8.69-16.02l-7.1938-22.23-9.3093-73.11
       c2.0128-46.025 32.369-71.453 54.024-87.886
       16.703-13.748 37.49-19.347 59.57-23.308
       9.51-1.706 19.26 0.636 29.03 0.695z"/>

  <!-- Linha separadora entre ilustração e texto -->
  <line x1="30" y1="418" x2="470" y2="418" stroke="#C9A227" stroke-width="0.6" opacity="0.4"/>

  <!-- "Careca" em itálico dourado -->
  <text x="250" y="455"
        text-anchor="middle"
        font-family="'Georgia','Times New Roman',serif"
        font-style="italic"
        font-size="42"
        fill="url(#goldT)">Careca</text>

  <!-- Linhas flanqueando BARBER (como no exemplo) -->
  <line x1="28" y1="472" x2="155" y2="472" stroke="#C9A227" stroke-width="2"/>
  <line x1="345" y1="472" x2="472" y2="472" stroke="#C9A227" stroke-width="2"/>

  <!-- "BARBER" bold espaçado -->
  <text x="250" y="522"
        text-anchor="middle"
        font-family="'Georgia','Times New Roman',serif"
        font-size="36"
        font-weight="700"
        letter-spacing="14"
        fill="#EFEFEF">BARBER</text>

  <!-- Linhas duplas no fundo (como no exemplo) -->
  <line x1="28" y1="540" x2="472" y2="540" stroke="#C9A227" stroke-width="2"/>
  <line x1="28" y1="546" x2="472" y2="546" stroke="#C9A227" stroke-width="0.7" opacity="0.5"/>
</svg>
